# xmcd
#
# Track frame offsets: 
#        225
#        20012
#        37752
#        56558
#        69030
#        88524
#        102227
#        124971
#        146662
#        165740
#        182625
#        200443
#        217332
#        233832
#        245734
#        260518
#        278796
#        295733
#        314371
#        331774
#        345197
#
# Disc length: 4788 seconds
#
# Revision: 0
# Processed by: cddbd v1.5.2PL0 Copyright (c) Steve Scherf et al.
# Submitted via: ExactAudioCopy v1.0b3
#
DISCID=3512b115
DTITLE=Demis Roussos - Universum and Die Nacht und der Wein
DYEAR=2015
DGENRE=Pop
TTITLE0=Romantica
TTITLE1=Ein kleines Märchen für die großen
TTITLE2=Maria
TTITLE3=Die Flügel deiner Liebe
TTITLE4=Auf uns wartet eine Welt
TTITLE5=New Horizon
TTITLE6=Kinder der ganzen Erde
TTITLE7=Strom des Lebens
TTITLE8=Zehn Jahre und mehr
TTITLE9=Wenn ich zauberer wär
TTITLE10=Nur Manchmal in der Nacht
TTITLE11=Die Bouzouki, die Nacht und der Wein
TTITLE12=König und Bettler
TTITLE13=Mein Leben ist ein Souvenir
TTITLE14=Komm in den Garten der tausend Melodien
TTITLE15=Schön wie Mona Lisa
TTITLE16=Ich hab das Glück gesehn
TTITLE17=Vagabund der Liebe
TTITLE18=Wenn ich wiederkomm'
TTITLE19=Perdoname
TTITLE20=Ich bin frei
EXTD=
EXTT0=
EXTT1=
EXTT2=
EXTT3=
EXTT4=
EXTT5=
EXTT6=
EXTT7=
EXTT8=
EXTT9=
EXTT10=
EXTT11=
EXTT12=
EXTT13=
EXTT14=
EXTT15=
EXTT16=
EXTT17=
EXTT18=
EXTT19=
EXTT20=
PLAYORDER=
